# xmcd
#
# Track frame offsets:
# 150
# 17695
# 34288
# 50219
# 70654
# 92621
# 107913
# 124600
# 137219
# 156292
# 172728
# 190369
# 207335
# 224203
# 239448
# 255508
# 272533
# 299244
# 324650
#
# Disc length: 4686 seconds
#
#
# Revision: 0
# Processed by: cddbd v1.5PL3 Copyright (c) Steve Scherf et al.
# Submitted via: FreeRIP 2.53 
#
DISCID=2c124c13
DTITLE=Boris Bukowski - The very best of Boris Bukowski
DYEAR=2004
DGENRE=Austropop
TTITLE0=Trag meine Liebe wie einen Mantel
TTITLE1=Hart und weich zugleich
TTITLE2=Hey Joe
TTITLE3=Kokain
TTITLE4=Das vergess ich nie
TTITLE5=Fandango
TTITLE6=Krieg dich nicht hinunter
TTITLE7=Euer Fritze mit der Spritze
TTITLE8=Gott ist eine Frau
TTITLE9=1/3 Rhythmus and 2/3 Schmalz
TTITLE10=Ich bin müde
TTITLE11=Ab und zu
TTITLE12=Nur du
TTITLE13=Tätowiert
TTITLE14=Mitten ins Herz
TTITLE15=100 Stunden am Tag
TTITLE16=Alte Liebe
TTITLE17=Fürimmer in mir drin
TTITLE18=copierschutz
EXTD=
EXTT0=
EXTT1=
EXTT2=
EXTT3=
EXTT4=
EXTT5=
EXTT6=
EXTT7=
EXTT8=
EXTT9=
EXTT10=
EXTT11=
EXTT12=
EXTT13=
EXTT14=
EXTT15=
EXTT16=
EXTT17=
EXTT18=
PLAYORDER=
